{"asset":{"generator":"3D Builder","version":"2.0"},"scene":0,"scenes":[{"nodes":[0]}],"nodes":[{"mesh":0,"matrix":[1,0,0,0,0,-1.1920928955078125E-7,-0.99999988079071045,0,0,0.99999988079071045,-1.1920928955078125E-7,0,-4.7386885171363247E-7,-1.3094679784941832E-9,-4.4661756959385457E-8,1]}],"meshes":[{"primitives":[{"attributes":{"POSITION":0},"mode":4,"indices":1,"material":0}]}],"materials":[{"name":"Yellow_1_0","pbrMetallicRoughness":{"baseColorFactor":[0.99110221862792969,0.87962234020233154,0,1],"metallicFactor":0,"roughnessFactor":0.498039186000824},"alphaMode":"OPAQUE"}],"accessors":[{"bufferView":0,"byteOffset":0,"count":4435,"componentType":5126,"type":"VEC3","min":[-0.049738936126232147,-0.024326108396053314,1.3094627604459674E-9],"max":[0.049739882349967957,0.024326018989086151,0.11799807101488113]},{"bufferView":1,"byteOffset":0,"count":26598,"componentType":5125,"type":"SCALAR"}],"bufferViews":[{"buffer":0,"byteOffset":0,"byteLength":53220,"byteStride":12,"target":34962},{"buffer":0,"byteOffset":53220,"byteLength":106392,"target":34963}],"buffers":[{"byteLength":159612,"uri":"fries.bin"}]}