{
  "accessors": [
    {
      "bufferView": 2,
      "componentType": 5126,
      "count": 20626,
      "max": [
        0.16493311524391174,
        0.30188524723052979,
        0.059249252080917358
      ],
      "min": [
        -0.13650144636631012,
        -0.41656747460365295,
        -0.51160907745361328
      ],
      "type": "VEC3"
    },
    {
      "bufferView": 2,
      "byteOffset": 247512,
      "componentType": 5126,
      "count": 20626,
      "max": [
        0.99998956918716431,
        0.99998360872268677,
        0.99929511547088623
      ],
      "min": [
        -0.99998664855957031,
        -0.99990040063858032,
        -0.99965053796768188
      ],
      "type": "VEC3"
    },
    {
      "bufferView": 1,
      "componentType": 5126,
      "count": 20626,
      "max": [
        0.99994140863418579,
        0.79321527481079102
      ],
      "min": [
        0.00010511279106140137,
        9.6023082733154297e-05
      ],
      "type": "VEC2"
    },
    {
      "bufferView": 0,
      "componentType": 5125,
      "count": 120000,
      "max": [
        20625
      ],
      "min": [
        0
      ],
      "type": "SCALAR"
    }
  ],
  "asset": {
    "extras": {
      "author": "alban (https://sketchfab.com/alban)",
      "license": "CC-BY-4.0 (http://creativecommons.org/licenses/by/4.0/)",
      "source": "https://sketchfab.com/3d-models/petit-parisien-gainsbourg-sandwich-068c936a5343457eb9d4907234ea655f",
      "title": "Petit parisien Gainsbourg Sandwich"
    },
    "generator": "Sketchfab-9.60.0",
    "version": "2.0"
  },
  "bufferViews": [
    {
      "buffer": 0,
      "byteLength": 480000,
      "byteOffset": 0,
      "name": "floatBufferViews",
      "target": 34963
    },
    {
      "buffer": 0,
      "byteLength": 165008,
      "byteOffset": 480000,
      "byteStride": 8,
      "name": "floatBufferViews",
      "target": 34962
    },
    {
      "buffer": 0,
      "byteLength": 495024,
      "byteOffset": 645008,
      "byteStride": 12,
      "name": "floatBufferViews",
      "target": 34962
    }
  ],
  "buffers": [
    {
      "byteLength": 1140032,
      "uri": "scene.bin"
    }
  ],
  "extensionsUsed": [
    "KHR_materials_unlit"
  ],
  "images": [
    {
      "uri": "textures/material0_baseColor.jpeg"
    }
  ],
  "materials": [
    {
      "doubleSided": true,
      "emissiveFactor": [
        0,
        0,
        0
      ],
      "extensions": {
        "KHR_materials_unlit": {}
      },
      "name": "material0",
      "pbrMetallicRoughness": {
        "baseColorFactor": [
          1,
          1,
          1,
          1
        ],
        "baseColorTexture": {
          "index": 0,
          "texCoord": 0
        },
        "metallicFactor": 0,
        "roughnessFactor": 1
      }
    }
  ],
  "meshes": [
    {
      "name": "Model_material0_0",
      "primitives": [
        {
          "attributes": {
            "NORMAL": 1,
            "POSITION": 0,
            "TEXCOORD_0": 2
          },
          "indices": 3,
          "material": 0,
          "mode": 4
        }
      ]
    }
  ],
  "nodes": [
    {
      "children": [
        1
      ],
      "name": "RootNode (gltf orientation matrix)",
      "rotation": [
        -0.70710678118654746,
        -0,
        -0,
        0.70710678118654757
      ]
    },
    {
      "children": [
        2
      ],
      "matrix": [
        -0.00018646880949537911,
        0.0060613739444821679,
        0.20312058071972672,
        0,
        1.0222936102224718e-17,
        0.20312066550599805,
        -0.0060613765940531472,
        0,
        -0.20321099922194552,
        -5.5619884189021828e-06,
        -0.00018638584480409025,
        0,
        0.24040976166725159,
        -0.0003923363983631134,
        0.2138885110616684,
        1
      ],
      "name": "RootNode (model correction matrix)"
    },
    {
      "children": [
        3
      ],
      "matrix": [
        1,
        0,
        0,
        0,
        0,
        -1,
        0,
        0,
        0,
        0,
        -1,
        0,
        0,
        0,
        0,
        1
      ],
      "name": "model.fbx"
    },
    {
      "children": [
        4
      ],
      "name": "RootNode"
    },
    {
      "children": [
        5
      ],
      "name": "Model"
    },
    {
      "mesh": 0,
      "name": "Model_material0_0"
    }
  ],
  "samplers": [
    {
      "magFilter": 9729,
      "minFilter": 9987,
      "wrapS": 10497,
      "wrapT": 10497
    }
  ],
  "scene": 0,
  "scenes": [
    {
      "name": "OSG_Scene",
      "nodes": [
        0
      ]
    }
  ],
  "textures": [
    {
      "sampler": 0,
      "source": 0
    }
  ]
}

